<mxfile host="app.diagrams.net" modified="2022-01-06T20:07:06.753Z" agent="5.0 (Windows NT 10.0; Win64; x64) AppleWebKit/537.36 (KHTML, like Gecko) Chrome/96.0.4664.110 Safari/537.36" etag="VdXmMuiMQlzCecccNGoJ" version="16.0.3" type="github">
  <diagram id="SdYqFJVFrgrXd9ql9Ncr" name="Page-1">
    <mxGraphModel dx="1038" dy="588" grid="1" gridSize="10" guides="1" tooltips="1" connect="1" arrows="1" fold="1" page="1" pageScale="1" pageWidth="827" pageHeight="1169" math="0" shadow="0">
      <root>
        <mxCell id="0" />
        <mxCell id="1" parent="0" />
        <mxCell id="IhcIkWIPHJ-7ImI7dwmJ-1" value="driver" style="rounded=0;whiteSpace=wrap;html=1;" vertex="1" parent="1">
          <mxGeometry x="40" y="120" width="200" height="40" as="geometry" />
        </mxCell>
        <mxCell id="IhcIkWIPHJ-7ImI7dwmJ-2" value="license" style="rounded=0;whiteSpace=wrap;html=1;" vertex="1" parent="1">
          <mxGeometry x="320" y="120" width="200" height="40" as="geometry" />
        </mxCell>
        <mxCell id="IhcIkWIPHJ-7ImI7dwmJ-4" value="school" style="rounded=0;whiteSpace=wrap;html=1;" vertex="1" parent="1">
          <mxGeometry x="40" y="320" width="200" height="40" as="geometry" />
        </mxCell>
        <mxCell id="IhcIkWIPHJ-7ImI7dwmJ-5" value="students" style="rounded=0;whiteSpace=wrap;html=1;" vertex="1" parent="1">
          <mxGeometry x="320" y="320" width="200" height="40" as="geometry" />
        </mxCell>
        <mxCell id="IhcIkWIPHJ-7ImI7dwmJ-8" value="" style="edgeStyle=orthogonalEdgeStyle;rounded=0;orthogonalLoop=1;jettySize=auto;html=1;exitX=0;exitY=0.75;exitDx=0;exitDy=0;entryX=1;entryY=0.25;entryDx=0;entryDy=0;" edge="1" parent="1" source="IhcIkWIPHJ-7ImI7dwmJ-6" target="IhcIkWIPHJ-7ImI7dwmJ-7">
          <mxGeometry relative="1" as="geometry" />
        </mxCell>
        <mxCell id="IhcIkWIPHJ-7ImI7dwmJ-6" value="&lt;div style=&quot;text-align: left&quot;&gt;&lt;span&gt;id : serial&lt;/span&gt;&lt;/div&gt;&lt;div style=&quot;text-align: left&quot;&gt;&lt;span&gt;name : varchar(255)&lt;br&gt;&lt;br&gt;&lt;/span&gt;&lt;/div&gt;&lt;div style=&quot;text-align: left&quot;&gt;&lt;span&gt;school_id : int&lt;/span&gt;&lt;/div&gt;" style="rounded=0;whiteSpace=wrap;html=1;" vertex="1" parent="1">
          <mxGeometry x="320" y="360" width="200" height="80" as="geometry" />
        </mxCell>
        <mxCell id="IhcIkWIPHJ-7ImI7dwmJ-7" value="&lt;div style=&quot;text-align: left&quot;&gt;&lt;span&gt;id : serial&lt;br&gt;&lt;br&gt;&lt;br&gt;&lt;/span&gt;&lt;/div&gt;&lt;div style=&quot;text-align: left&quot;&gt;&lt;span&gt;name : varchar(255)&lt;/span&gt;&lt;/div&gt;" style="rounded=0;whiteSpace=wrap;html=1;" vertex="1" parent="1">
          <mxGeometry x="40" y="360" width="200" height="80" as="geometry" />
        </mxCell>
        <mxCell id="IhcIkWIPHJ-7ImI7dwmJ-9" value="students" style="rounded=0;whiteSpace=wrap;html=1;" vertex="1" parent="1">
          <mxGeometry x="40" y="520" width="200" height="40" as="geometry" />
        </mxCell>
        <mxCell id="IhcIkWIPHJ-7ImI7dwmJ-10" value="students_subjects" style="rounded=0;whiteSpace=wrap;html=1;" vertex="1" parent="1">
          <mxGeometry x="320" y="520" width="200" height="40" as="geometry" />
        </mxCell>
        <mxCell id="IhcIkWIPHJ-7ImI7dwmJ-11" value="subjects" style="rounded=0;whiteSpace=wrap;html=1;" vertex="1" parent="1">
          <mxGeometry x="600" y="520" width="200" height="40" as="geometry" />
        </mxCell>
        <mxCell id="IhcIkWIPHJ-7ImI7dwmJ-12" value="&lt;div style=&quot;text-align: left&quot;&gt;&lt;span&gt;id : serial&lt;/span&gt;&lt;/div&gt;&lt;br&gt;&lt;div style=&quot;text-align: left&quot;&gt;&lt;span&gt;name : varchar(255)&lt;/span&gt;&lt;/div&gt;" style="rounded=0;whiteSpace=wrap;html=1;" vertex="1" parent="1">
          <mxGeometry x="600" y="560" width="200" height="80" as="geometry" />
        </mxCell>
        <mxCell id="IhcIkWIPHJ-7ImI7dwmJ-15" style="edgeStyle=orthogonalEdgeStyle;rounded=0;orthogonalLoop=1;jettySize=auto;html=1;exitX=1;exitY=0.75;exitDx=0;exitDy=0;entryX=0;entryY=0.25;entryDx=0;entryDy=0;" edge="1" parent="1" source="IhcIkWIPHJ-7ImI7dwmJ-13" target="IhcIkWIPHJ-7ImI7dwmJ-12">
          <mxGeometry relative="1" as="geometry" />
        </mxCell>
        <mxCell id="IhcIkWIPHJ-7ImI7dwmJ-16" style="edgeStyle=orthogonalEdgeStyle;rounded=0;orthogonalLoop=1;jettySize=auto;html=1;exitX=0;exitY=0.5;exitDx=0;exitDy=0;entryX=1;entryY=0.25;entryDx=0;entryDy=0;" edge="1" parent="1" source="IhcIkWIPHJ-7ImI7dwmJ-13" target="IhcIkWIPHJ-7ImI7dwmJ-14">
          <mxGeometry relative="1" as="geometry" />
        </mxCell>
        <mxCell id="IhcIkWIPHJ-7ImI7dwmJ-13" value="&lt;div style=&quot;text-align: left&quot;&gt;&lt;span&gt;id : serial&lt;/span&gt;&lt;/div&gt;&lt;div style=&quot;text-align: left&quot;&gt;&lt;span&gt;student_id : int&lt;/span&gt;&lt;/div&gt;&lt;div style=&quot;text-align: left&quot;&gt;&lt;span&gt;subject_id : int&lt;/span&gt;&lt;/div&gt;" style="rounded=0;whiteSpace=wrap;html=1;" vertex="1" parent="1">
          <mxGeometry x="320" y="560" width="200" height="80" as="geometry" />
        </mxCell>
        <mxCell id="IhcIkWIPHJ-7ImI7dwmJ-14" value="&lt;div style=&quot;text-align: left&quot;&gt;&lt;span&gt;id : serial&lt;/span&gt;&lt;/div&gt;&lt;br&gt;name : varchar(255)" style="rounded=0;whiteSpace=wrap;html=1;" vertex="1" parent="1">
          <mxGeometry x="40" y="560" width="200" height="80" as="geometry" />
        </mxCell>
        <mxCell id="IhcIkWIPHJ-7ImI7dwmJ-17" value="id : serial&lt;br&gt;seria : int&lt;br&gt;number : int" style="rounded=0;whiteSpace=wrap;html=1;" vertex="1" parent="1">
          <mxGeometry x="320" y="160" width="200" height="80" as="geometry" />
        </mxCell>
        <mxCell id="IhcIkWIPHJ-7ImI7dwmJ-20" style="edgeStyle=orthogonalEdgeStyle;rounded=0;orthogonalLoop=1;jettySize=auto;html=1;exitX=1;exitY=0.75;exitDx=0;exitDy=0;entryX=0;entryY=0.25;entryDx=0;entryDy=0;" edge="1" parent="1" source="IhcIkWIPHJ-7ImI7dwmJ-18" target="IhcIkWIPHJ-7ImI7dwmJ-17">
          <mxGeometry relative="1" as="geometry" />
        </mxCell>
        <mxCell id="IhcIkWIPHJ-7ImI7dwmJ-18" value="id : serial&lt;br&gt;name : varchar(255)&lt;br&gt;license : int" style="rounded=0;whiteSpace=wrap;html=1;" vertex="1" parent="1">
          <mxGeometry x="40" y="160" width="200" height="80" as="geometry" />
        </mxCell>
      </root>
    </mxGraphModel>
  </diagram>
</mxfile>
